<?xml version="1.0" encoding="UTF-8" standalone="no"?>
<!-- Created with Inkscape (http://www.inkscape.org/) -->

<svg
   width="88mm"
   height="125mm"
   viewBox="0 0 88 125"
   version="1.1"
   id="svg5"
   xml:space="preserve"
   inkscape:version="1.2.2 (b0a8486541, 2022-12-01)"
   sodipodi:docname="ccms-logo.svg"
   xmlns:inkscape="http://www.inkscape.org/namespaces/inkscape"
   xmlns:sodipodi="http://sodipodi.sourceforge.net/DTD/sodipodi-0.dtd"
   xmlns="http://www.w3.org/2000/svg"
   xmlns:svg="http://www.w3.org/2000/svg"><sodipodi:namedview
     id="namedview7"
     pagecolor="#505050"
     bordercolor="#eeeeee"
     borderopacity="1"
     inkscape:showpageshadow="0"
     inkscape:pageopacity="0"
     inkscape:pagecheckerboard="0"
     inkscape:deskcolor="#505050"
     inkscape:document-units="mm"
     showgrid="false"
     inkscape:zoom="0.5946522"
     inkscape:cx="-274.10981"
     inkscape:cy="566.71782"
     inkscape:window-width="1881"
     inkscape:window-height="1131"
     inkscape:window-x="0"
     inkscape:window-y="32"
     inkscape:window-maximized="1"
     inkscape:current-layer="layer1" /><defs
     id="defs2"><rect
       x="163.70427"
       y="95.607651"
       width="462.05029"
       height="126.05573"
       id="rect830" /></defs><g
     inkscape:label="Layer 1"
     inkscape:groupmode="layer"
     id="layer1"><path
       style="fill:#ffaaaa;fill-rule:evenodd;stroke:none;stroke-width:0.322537px;stroke-linecap:butt;stroke-linejoin:miter;stroke-opacity:1"
       d="m 24.09214,33.013429 c -0.86028,-0.228988 -1.744678,-0.332352 -2.61993,-0.279614 -2.249614,0.02078 -4.387789,0.972146 -6.103308,2.320479 -0.36231,0.287438 -0.707525,0.592148 -1.038033,0.911729 -1.246705,1.205525 -2.277497,2.620366 -3.178302,4.106727 -4.2165934,7.238662 -2.7301884,16.433787 1.303457,23.416397 0.812322,1.194244 1.524763,2.360524 2.308736,3.366747 0.647448,0.102585 1.29474,0.296296 1.908972,0.60812 0.521914,0.03256 0.946274,0.211572 1.250366,0.423544 0.395907,0.218896 0.787208,0.513314 1.114414,0.898136 0.130219,0.141041 0.257412,0.345577 0.34585,0.616822 0.08723,0.250005 0.04028,0.542756 -0.163155,0.836885 -0.744674,0.532932 -1.520077,0.530231 -1.945269,0.357703 -1.315509,-0.656177 -2.36821,-1.537865 -3.283289,-2.530595 -0.413597,-0.02223 -0.826038,-0.01 -1.222185,0.03734 -1.25079,0.175929 -2.400786,0.676806 -3.3749194,1.301053 -1.084743,0.663691 -2.204758,1.553714 -2.914267,2.405848 l -1.483683,3.146806 c -0.107342,0.844021 0.218741,1.551213 0.585773,2.267164 0.871122,1.669836 2.892514,2.514757 4.339384,2.758772 0.5079554,0.08425 0.9769654,0.129815 1.4135194,0.148787 l 0.707399,-0.02801 3.217083,-0.698957 c 2.248658,-0.798241 3.393361,-1.444727 5.262566,-2.769664 0.124592,-0.298364 0.22593,-0.530275 0.3674,-0.878875 1.810646,-3.512789 4.840181,-8.636131 9.506795,-13.892077 0.491942,-1.161235 0.984797,-2.344687 1.46385,-3.577986 0.855176,-3.219638 1.527382,-6.812573 1.397674,-10.506525 -0.121373,-3.373476 -0.943159,-6.970223 -2.972511,-10.115528 -1.249861,-2.143873 -3.613467,-3.964508 -6.194188,-4.651862 z m 41.213394,13.539042 c -0.536076,-0.117323 -1.075865,-0.199702 -1.615343,-0.246593 -7.627107,-0.409051 -14.659754,2.653553 -20.074915,5.997882 -4.683039,2.999297 -8.567436,6.409623 -11.762239,9.796309 -1.165201,2.607618 -2.317156,5.017634 -3.254802,7.261724 -1.075397,2.30652 -1.939144,4.138014 -2.743593,5.704876 l -1.737729,8.969438 -0.548932,4.67658 c 0.01232,0.488007 0.04201,1.009257 0.09927,1.573108 0.102196,1.712226 0.6397,3.941935 2.155544,6.002449 1.153697,1.55783 3.106711,3.10243 5.489444,3.52594 1.247416,0.310796 2.656162,0.11845 3.856836,-0.48291 1.128609,-0.57312 2.085898,-1.47867 2.74382,-2.59279 1.665754,-2.832069 2.187327,-6.500514 1.346454,-10.305909 -2.47068,-1.689654 -5.11475,-3.441636 -6.416409,-6.170899 0.09387,-0.436059 0.314228,-0.897848 0.714863,-1.296418 0.361121,-0.248594 0.796456,-0.357625 1.237933,-0.326638 0.980832,0.113488 1.736585,0.575087 2.259497,1.030018 0.708037,0.55506 1.308402,1.190788 1.808383,1.858169 0.416489,0.515204 0.82354,1.139628 0.993472,1.888143 0.260789,0.675439 0.475652,1.351145 0.651903,2.024439 6.944902,2.5098 15.066583,2.295583 22.231001,-0.341399 5.546553,-2.320068 9.903752,-6.667908 12.358747,-11.858769 0.02901,-0.06213 0.05813,-0.124147 0.0868,-0.18641 2.332283,-5.070804 2.882875,-10.89837 1.109164,-16.277753 C 75.537696,54.132153 73.90437,51.655429 71.709516,49.76883 69.881157,48.197945 67.629008,47.058506 65.305561,46.552482 Z M 28.835503,65.529746 c -3.314217,4.023225 -5.995138,8.514862 -7.558651,11.258252 -1.240077,2.542343 -2.442825,5.026025 -2.654267,7.330499 0.03142,-0.04623 -0.120368,0.162014 -0.02064,0.05591 1.20879,-1.487606 2.287239,-2.712258 3.769016,-4.750601 1.605816,-2.555347 2.880458,-5.482812 5.081315,-10.519606 0.417457,-1.087435 0.891863,-2.220128 1.383186,-3.374438 z m 6.101952,14.521069 c -0.04597,-0.0078 -0.09097,-0.0089 -0.134155,-0.0056 -0.07878,-0.0022 -0.166621,0.01467 -0.196804,0.04924 -0.10333,-0.0339 -0.172779,0.05924 -0.267139,0.192144 0.706105,1.644974 2.408629,2.815355 4.310411,4.028282 -0.07641,-0.216484 -0.152159,-0.433024 -0.237584,-0.64942 -0.07704,-0.440182 -0.415139,-0.906539 -0.788252,-1.430112 -0.440448,-0.569741 -0.949213,-1.101472 -1.530345,-1.544989 -0.440974,-0.29793 -0.833375,-0.589714 -1.156157,-0.639662 z"
       id="path271" /><path
       id="path748"
       d="m 16.27651,27.861957 c 4.585346,-3.133658 11.276493,-2.387766 14.422508,1.509345 5.918968,6.742397 4.751409,17.00723 0.874376,27.13579 -0.288737,0.311501 -0.575201,0.624558 -0.858777,0.940204 3.199917,-9.369441 4.003667,-16.828989 -1.624189,-23.248259 -3.18579,-3.933599 -9.844049,-4.728806 -14.077443,-1.477604 -4.191034,3.156898 -6.7274104,5.300182 -7.5243814,9.732702 0.671601,-5.297313 3.2201754,-10.439649 8.3511654,-14.276899 0.14333,-0.109142 0.288832,-0.214184 0.436718,-0.315302 z"
       style="fill:#b4b4b4;fill-opacity:1;fill-rule:evenodd;stroke:none;stroke-width:1.92292;stroke-linecap:butt;stroke-linejoin:miter;stroke-miterlimit:4;stroke-dasharray:none;stroke-opacity:1" /><path
       id="path750"
       d="m 35.705199,58.14762 c 8.671849,-9.354937 19.653094,-16.761247 31.690615,-17.784075 7.010851,-0.649521 13.312388,3.406592 15.521202,9.203427 4.499506,10.425479 -1.042778,24.248081 -11.998899,30.56181 8.465215,-6.388828 10.167938,-15.981168 5.996615,-25.23711 -2.255694,-5.613205 -8.328498,-9.646833 -14.935144,-9.17981 -10.742048,0.675217 -18.554048,4.601847 -26.368027,12.679228 0.03136,-0.08102 0.0626,-0.162291 0.09364,-0.24347 z"
       style="fill:#b3b3b3;fill-opacity:1;fill-rule:evenodd;stroke:none;stroke-width:1.92292;stroke-linecap:butt;stroke-linejoin:miter;stroke-miterlimit:4;stroke-dasharray:none;stroke-opacity:1" /><path
       style="fill:#800080;fill-rule:nonzero;stroke:none;stroke-width:0.130365;stroke-linecap:butt;stroke-linejoin:miter;stroke-miterlimit:4;stroke-dasharray:none;stroke-opacity:1"
       id="path752"
       d="m 17.994855,84.115908 c 0.03883,0.03712 1.506228,-0.796485 3.481517,-3.191919 2.423334,-2.938758 3.802848,-5.803382 6.515077,-11.62059 1.325654,-3.172725 3.075904,-6.656217 4.693244,-10.599141 0.9457,-3.282556 1.697371,-6.997392 1.624513,-10.902883 -0.06318,-3.550922 -0.915137,-7.390961 -3.096578,-10.86166 -1.949852,-3.440502 -6.162659,-6.062868 -10.552657,-5.890041 -2.755461,0.06135 -5.251966,1.133816 -7.170302,2.686018 -0.402306,0.322882 -0.78475,0.661746 -1.148907,1.014103 -1.373785,1.329216 -2.4854964,2.848254 -3.4219094,4.418628 -4.469566,7.893517 -2.855186,17.590086 1.5162564,24.915362 1.682464,2.437302 3.314279,4.999328 6.23351,6.455469 0.425152,0.172661 1.200698,0.175006 1.945364,-0.357936 0.203441,-0.294107 0.250357,-0.586524 0.163169,-0.836519 -0.08844,-0.271233 -0.215683,-0.476381 -0.345917,-0.617366 -0.327197,-0.3848 -0.718127,-0.678985 -1.114057,-0.897825 -0.304162,-0.211639 -0.729017,-0.391268 -1.250924,-0.423945 -1.369262,-0.696322 -2.902624,-0.830728 -4.238077,-0.584701 -1.485133,0.244526 -2.7855114,0.836585 -3.8486604,1.564272 -1.671995,1.067163 -2.954074,2.407282 -3.748477,3.90029 -0.9286549,1.723885 -0.9415386,3.653585 -0.115923,5.210956 1.213499,2.010134 3.516219,2.865258 5.145277,3.050378 0,0 10e-6,0 10e-6,0 4.5568554,0.526274 5.4686234,-1.627057 5.7002964,-1.32307 -0.0701,-0.09192 -1.881806,1.325882 -5.6451524,0.701513 0,0 -3e-6,1.1e-5 -3e-6,1.1e-5 -1.446871,-0.244014 -3.468257,-1.088002 -4.339224,-2.758338 -0.655389,-1.278391 -0.53766,-2.897746 0.292336,-4.370403 0.752322,-1.318368 1.96058,-2.49553 3.519913,-3.449593 0.974133,-0.624247 2.1239734,-1.12538 3.3747664,-1.301297 1.181627,-0.140852 2.504614,0.0022 3.589686,0.574777 0.210757,0.0056 0.490742,0.147264 0.832167,0.308099 0.271331,0.166737 0.512503,0.343444 0.663215,0.540323 0.04993,0.07824 0.08436,0.112399 0.06747,0.101696 -0.03213,-0.04913 -0.0036,-0.121502 0.06742,-0.258897 0.280754,0.02245 0.03744,-0.12557 -0.350445,-0.05057 -2.289173,-1.067096 -3.526604,-3.394177 -5.183675,-5.830301 -4.0336514,-6.98261 -5.5201884,-16.177646 -1.303599,-23.416286 0.900809,-1.486383 1.93145,-2.901591 3.178152,-4.107105 0.330513,-0.319603 0.676122,-0.624368 1.038431,-0.911807 1.715519,-1.348332 3.853279,-2.299495 6.102901,-2.320245 3.501005,-0.210928 7.147783,2.073197 8.814263,4.931708 2.029342,3.145317 2.85115,6.741608 2.972517,10.115101 0.12972,3.693942 -0.542274,7.287232 -1.397449,10.506881 -1.506862,3.879317 -3.169497,7.387538 -4.409025,10.616378 -2.640217,6.042307 -3.647625,8.56191 -5.91264,11.726832 -1.745341,2.438769 -3.017028,3.46801 -2.937798,3.543687 z" /><path
       style="fill:none;fill-rule:nonzero;stroke:none;stroke-width:0.130365;stroke-linecap:butt;stroke-linejoin:miter;stroke-miterlimit:4;stroke-dasharray:none;stroke-opacity:1"
       d="m 19.536362,83.559381 c -0.05448,0.03356 -0.146524,0.04979 -0.161952,-0.0089"
       id="path754" /><path
       style="fill:#800080;fill-rule:nonzero;stroke:none;stroke-width:0.130365;stroke-linecap:butt;stroke-linejoin:miter;stroke-miterlimit:4;stroke-dasharray:none;stroke-opacity:1"
       id="path756"
       d="m 24.399149,84.481568 c 0.16396,0.05102 -1.331046,1.875396 -1.104111,6.295857 0.01591,1.791016 0.486424,4.154897 2.052458,6.420869 1.203704,1.75168 3.310114,3.502166 6.062791,4.078166 1.550518,0.39723 3.245541,0.21694 4.682017,-0.49198 1.332951,-0.64996 2.463873,-1.666396 3.240719,-2.935636 2.303497,-3.754797 2.766537,-8.856277 0.808921,-13.926348 -0.169928,-0.748504 -0.577063,-1.372684 -0.99356,-1.887865 -0.499978,-0.667381 -1.100091,-1.30332 -1.808128,-1.85838 -0.522902,-0.454964 -1.278912,-0.916141 -2.259741,-1.029607 -0.441454,-0.03101 -0.876355,0.07813 -1.237477,0.326683 -0.400626,0.398559 -0.6216,0.860292 -0.715397,1.296351 1.352203,2.835249 4.154983,4.61654 6.705097,6.368177 7.533297,2.822168 16.294176,2.724429 24.013254,-0.04879 5.96834,-2.493885 10.622647,-7.091242 13.228853,-12.606419 0.03123,-0.06557 0.06202,-0.131237 0.09258,-0.197045 2.488527,-5.358888 3.046255,-11.538689 1.142084,-17.319231 -0.856946,-2.953906 -2.683639,-5.691327 -5.152694,-7.79141 -2.568127,-2.185363 -5.854773,-3.601137 -9.186354,-3.887709 -8.210086,-0.333174 -15.508987,2.883252 -21.005548,6.405733 -12.141035,8.015219 -18.716954,18.611592 -21.789179,24.571974 -1.31556,3.2416 -1.866667,4.120831 -2.301515,6.178501 -0.307542,1.455486 -0.190728,2.225186 -0.149088,2.229542 0.06587,0.0067 0.105264,-0.745214 0.527636,-2.123267 0.684991,-2.234876 1.070717,-2.501131 2.630387,-5.97133 3.292925,-5.777863 10.0647,-16.112061 22.016965,-23.767009 5.415156,-3.344318 12.448025,-6.407 20.075132,-5.99796 2.877273,0.249816 5.768805,1.529685 8.019098,3.463097 2.194854,1.88661 3.828291,4.36349 4.585298,7.006417 1.773732,5.379393 1.222841,11.206927 -1.10942,16.277753 -0.02901,0.06224 -0.05757,0.124436 -0.0868,0.186498 -2.454984,5.190861 -6.811561,9.538691 -12.358113,11.858759 -7.242663,2.665756 -15.464468,2.857445 -22.458958,0.260041 -2.503689,-1.640227 -5.03742,-2.963675 -5.942201,-5.071515 0.09434,-0.132961 0.164164,-0.226043 0.26742,-0.191989 0.03017,-0.03457 0.118017,-0.05279 0.19676,-0.05001 0.345625,-0.02756 0.786361,0.305488 1.290345,0.645941 0.581134,0.443495 1.089704,0.975003 1.530153,1.544767 0.37311,0.523562 0.711032,0.989885 0.788072,1.43009 1.87687,4.754891 1.568574,9.558118 -0.49894,13.07327 -0.657928,1.11414 -1.615518,2.01954 -2.744131,2.59262 -1.200675,0.601376 -2.609089,0.793896 -3.856497,0.483036 -2.382729,-0.423526 -4.336141,-1.968516 -5.48984,-3.526356 -1.515844,-2.060507 -2.053053,-4.289794 -2.155247,-6.002031 -0.424198,-4.176113 0.555138,-6.278552 0.446858,-6.312362 z" /><path
       style="fill:#ffaaaa;fill-opacity:1;fill-rule:evenodd;stroke:none;stroke-width:0.1402px;stroke-linecap:butt;stroke-linejoin:miter;stroke-opacity:1"
       d="m 36.098817,52.820731 c -0.0096,-0.0067 -0.01572,-0.01667 -0.01961,-0.02979 0,0 0,0 0,0 -0.0017,-0.01678 7.14e-4,-0.03912 0.0069,-0.06635 v 0 0 0 c 0.01161,-0.05513 0.03899,-0.130471 0.08094,-0.22612 0,0 4e-6,-1.1e-5 4e-6,-1.1e-5 v 0 c 0.08202,-0.189399 0.220146,-0.455443 0.412784,-0.79274 v 0 c 0.373547,-0.654099 0.947335,-1.567951 1.710205,-2.688929 v 0 c 1.356165,-1.99303 3.413648,-4.802783 5.979442,-7.736606 v 0 c 0,0 0,0 0,0 1.69245,-1.939747 3.73316,-4.148349 6.158591,-6.02489 0.443817,-0.343387 0.89588,-0.672338 1.357713,-0.986161 1.115899,-0.766132 2.317078,-1.438959 3.708412,-1.804398 0.56174,-0.14812 1.168992,-0.22592 1.802375,-0.187276 0,0 0,0 0,0 0.624702,0.06113 1.243802,0.247471 1.801552,0.550781 1.510479,1.47667 2.29845,3.317933 2.102627,4.994527 -0.244514,1.547823 -1.225308,2.71656 -2.265841,3.434244 -0.554271,0.387434 -1.145296,0.663113 -1.746069,0.826494 -0.573576,0.163413 -1.160968,0.198535 -1.712304,0.07724 -0.603485,-0.139385 -1.03492,-0.509502 -1.251605,-0.886088 0,0 0,0 0,0 -0.65161,-1.224775 0.113955,-1.705769 -0.02979,-1.728498 0.09947,0.01578 -0.09447,0.751083 0.514537,1.501677 0,0 0,0 0,0 0.17086,0.226676 0.490874,0.427478 0.865171,0.474425 0.387378,0.05746 0.803209,-0.02212 1.273322,-0.181585 0.48235,-0.171605 0.951363,-0.439871 1.404727,-0.801453 0.833117,-0.674895 1.60185,-1.70608 1.716894,-2.928066 0.183075,-1.242713 -0.498455,-2.654642 -1.697222,-3.841317 -0.279569,-0.140318 -0.618489,-0.209427 -0.962588,-0.207181 0,0 -1.1e-5,-1.2e-5 -1.1e-5,-1.2e-5 -0.417154,-0.02567 -0.856169,0.04557 -1.306043,0.163336 -1.143351,0.300987 -2.18264,0.916242 -3.253025,1.63805 -0.437682,0.298397 -0.867672,0.611876 -1.291806,0.939837 -2.307031,1.783902 -4.342824,3.93281 -6.074928,5.806238 0,0 0,0 0,0 v 0 c -2.573915,2.790059 -4.843922,5.566592 -6.339779,7.387638 v 0 c -0.857933,1.044534 -1.552623,1.891845 -2.046426,2.462454 v 0 c -0.255989,0.295818 -0.462011,0.522094 -0.612527,0.668648 v 0 c 0,0 0,0 0,0 -0.07642,0.07458 -0.139075,0.128803 -0.187208,0.161991 v 0 0 0 c -0.02417,0.01667 -0.04492,0.02812 -0.06182,0.0339 0,0 0,0 0,0 -0.01526,0.0022 -0.02804,0.0022 -0.03742,-0.0033 z"
       id="path758" /><path
       id="path760"
       d="m 35.857283,53.26058 c -0.0123,-0.0033 -0.02103,-0.01 -0.02905,-0.02201 -0.0059,-0.01434 -0.0091,-0.03223 -0.0094,-0.05579 0,0 0,0 0,0 -0.0013,-0.04679 0.0084,-0.112744 0.02734,-0.197101 v 0 c 0.03744,-0.166459 0.113142,-0.406918 0.221102,-0.712817 v 0 c 0.208303,-0.591048 0.548458,-1.457041 0.963658,-2.51997 v 0 c 0.75332,-1.928399 1.873653,-4.786355 2.856496,-7.973706 v 0 c 0,0 1.4e-5,-1.1e-5 1.4e-5,-1.1e-5 0.739773,-2.404148 1.506604,-5.20621 1.778917,-8.087484 0.03328,-0.350579 0.05883,-0.699602 0.07665,-1.047357 0.0691,-1.37324 0.02048,-2.677016 -0.290773,-3.953694 -0.25525,-1.07531 -0.642222,-2.061449 -1.418894,-2.89869 -0.78225,-0.540089 -1.495222,-1.00459 -2.303898,-1.203514 -0.459105,-0.123135 -0.963948,-0.144241 -1.266166,-0.01334 -0.427021,0.138173 -0.712116,0.480528 -0.947438,0.828183 -0.299753,0.477171 -0.437399,1.013281 -0.511036,1.518893 -0.181095,1.370861 0.03639,2.442114 0.522803,3.344785 0.272843,0.469458 0.486633,0.76601 0.868572,0.968879 0,0 2.4e-5,0 2.4e-5,0 0.178995,0.100251 0.371752,0.156334 0.539649,0.176751 0.463921,0.06368 0.757359,-0.04146 0.797937,-2.56e-4 -0.0032,-0.0044 -0.09489,0.241081 -0.762949,0.267188 -0.241658,0.0056 -0.546383,-0.03445 -0.850566,-0.159457 0,0 0,0 0,0 -0.548973,-0.232044 -0.990751,-0.613454 -1.325828,-1.114532 -0.675863,-0.954952 -1.089533,-2.166001 -1.007216,-3.64027 0.02466,-0.557683 0.134884,-1.172549 0.448065,-1.769887 0.216452,-0.444517 0.61786,-0.923688 1.357461,-1.249482 0.734062,-0.281037 1.665931,-0.301565 2.531942,-0.07358 1.246447,0.345589 2.262038,0.934236 3.134737,1.560127 1.006954,1.058416 1.559467,2.230987 1.879007,3.426798 0.360905,1.378975 0.436397,2.763729 0.366334,4.181015 -0.01755,0.359092 -0.04339,0.719073 -0.07768,1.080088 -0.282921,2.977013 -1.114267,5.802949 -1.962288,8.213765 0,0 0,0 0,0 v 0 c -1.133092,3.227451 -2.446916,5.985423 -3.464657,7.887004 v 0 c -0.556315,1.039522 -1.039671,1.849577 -1.411186,2.404748 v 0 c -0.190134,0.284126 -0.349233,0.498632 -0.473287,0.640673 v 0 c -0.06259,0.07169 -0.115866,0.124347 -0.159431,0.157735 0,0 0,0 0,0 -0.02186,0.01678 -0.04122,0.02856 -0.05799,0.03545 -0.01584,0.0056 -0.02954,0.0033 -0.04126,10e-4 z"
       style="fill:#ffaaaa;fill-opacity:1;fill-rule:evenodd;stroke:none;stroke-width:0.139044px;stroke-linecap:butt;stroke-linejoin:miter;stroke-opacity:1" /><ellipse
       style="fill:#ffffff;fill-opacity:1;stroke:none;stroke-width:0.324374;stroke-linecap:round;stroke-miterlimit:4;stroke-dasharray:none;stroke-opacity:1"
       id="path239"
       cx="-3.2489133"
       cy="48.128208"
       transform="matrix(-0.96394935,0.2660858,0.38690077,0.92212136,0,0)"
       rx="4.6679845"
       ry="4.4916358" /><ellipse
       style="fill:#ffffff;fill-opacity:1;stroke:none;stroke-width:0.209334;stroke-linecap:round;stroke-miterlimit:4;stroke-dasharray:none;stroke-opacity:1"
       id="path239-7"
       cx="6.3000264"
       cy="96.446243"
       transform="matrix(-0.96394935,0.2660858,0.38690077,0.92212136,0,0)"
       rx="3.0124626"
       ry="2.8986571" /><ellipse
       style="fill:#ffffff;fill-opacity:1;stroke:none;stroke-width:0.209334;stroke-linecap:round;stroke-miterlimit:4;stroke-dasharray:none;stroke-opacity:1"
       id="path239-7-5"
       cx="17.68313"
       cy="75.198463"
       transform="matrix(-0.96394935,0.2660858,0.38690077,0.92212136,0,0)"
       rx="3.0124626"
       ry="2.8986571" /><ellipse
       style="fill:#ffffff;fill-opacity:1;stroke:none;stroke-width:0.430726;stroke-linecap:round;stroke-miterlimit:4;stroke-dasharray:none;stroke-opacity:1"
       id="path241"
       cx="-32.017052"
       cy="74.539436"
       transform="matrix(-0.96394935,0.2660858,0.38690077,0.92212136,0,0)"
       rx="7.001977"
       ry="6.737453" /><text
       xml:space="preserve"
       transform="matrix(0.29406614,0,0,0.29406614,-58.983059,46.015816)"
       id="text828"
       style="font-style:normal;font-variant:normal;font-weight:normal;font-stretch:normal;font-size:96px;font-family:Caramel;-inkscape-font-specification:'Caramel, Normal';font-variant-ligatures:normal;font-variant-caps:normal;font-variant-numeric:normal;font-variant-east-asian:normal;text-align:center;white-space:pre;shape-inside:url(#rect830);fill:#ff5555;stroke:#ffffff;stroke-width:0"><tspan
         x="341.59357"
         y="179.60742"
         id="tspan351">ccms</tspan></text></g></svg>
