<?xml version="1.0" encoding="UTF-8" standalone="no"?>
<!-- Created with Inkscape (http://www.inkscape.org/) -->

<svg
   width="88mm"
   height="125mm"
   viewBox="0 0 88 125"
   version="1.1"
   id="svg5"
   xml:space="preserve"
   inkscape:version="1.4 (e7c3feb100, 2024-10-09)"
   sodipodi:docname="ccms-logo.svg"
   xmlns:inkscape="http://www.inkscape.org/namespaces/inkscape"
   xmlns:sodipodi="http://sodipodi.sourceforge.net/DTD/sodipodi-0.dtd"
   xmlns="http://www.w3.org/2000/svg"
   xmlns:svg="http://www.w3.org/2000/svg"><sodipodi:namedview
     id="namedview7"
     pagecolor="#505050"
     bordercolor="#eeeeee"
     borderopacity="1"
     inkscape:showpageshadow="0"
     inkscape:pageopacity="0"
     inkscape:pagecheckerboard="0"
     inkscape:deskcolor="#505050"
     inkscape:document-units="mm"
     showgrid="false"
     inkscape:zoom="2.3786088"
     inkscape:cx="183.30042"
     inkscape:cy="327.92278"
     inkscape:window-width="1920"
     inkscape:window-height="1222"
     inkscape:window-x="0"
     inkscape:window-y="26"
     inkscape:window-maximized="1"
     inkscape:current-layer="layer1" /><defs
     id="defs2"><rect
       x="163.70427"
       y="95.607651"
       width="462.05029"
       height="126.05573"
       id="rect830" /></defs><g
     inkscape:label="Layer 1"
     inkscape:groupmode="layer"
     id="layer1"><path
       style="fill:#ffaaaa;fill-rule:evenodd;stroke:none;stroke-width:0.297368px;stroke-linecap:butt;stroke-linejoin:miter;stroke-opacity:1"
       d="m 21.724427,37.70233 c -0.785015,-0.213307 -1.59204,-0.309592 -2.390718,-0.260466 -2.052801,0.01936 -4.003912,0.905573 -5.569345,2.16157 -0.330613,0.267754 -0.645626,0.551597 -0.947218,0.849293 -1.137635,1.122969 -2.078245,2.44092 -2.9002412,3.825494 -3.8476939,6.74295 -2.4913308,15.308383 1.1894212,21.812816 0.741254,1.112461 1.391365,2.198872 2.106751,3.136188 0.590804,0.09556 1.181466,0.276005 1.74196,0.566475 0.476254,0.03033 0.863487,0.197084 1.140975,0.39454 0.36127,0.203905 0.718337,0.478161 1.016917,0.83663 0.118826,0.131383 0.234892,0.321912 0.315592,0.574582 0.0796,0.232884 0.03676,0.505587 -0.148881,0.779574 -0.679524,0.496436 -1.387088,0.49392 -1.775082,0.333207 -1.200419,-0.611241 -2.161021,-1.43255 -2.996042,-2.357297 -0.377413,-0.02071 -0.75377,-0.0093 -1.11526,0.03478 -1.141361,0.163881 -2.1907468,0.630457 -3.0796558,1.211955 -0.9898415,0.618241 -2.0118693,1.447314 -2.6593051,2.241093 l -1.3538793,2.931309 c -0.097951,0.786222 0.1996038,1.444984 0.5345251,2.111906 0.7949098,1.555484 2.6394553,2.342544 3.9597423,2.569848 0.4635157,0.07848 0.8914933,0.120926 1.2898548,0.138598 l 0.645509,-0.02609 2.93563,-0.651092 c 2.051928,-0.743577 3.096484,-1.345791 4.802157,-2.579994 0.113691,-0.277932 0.206164,-0.493962 0.335258,-0.818689 1.652236,-3.272229 4.416725,-8.044719 8.675069,-12.940732 0.448903,-1.081712 0.898639,-2.18412 1.335781,-3.332962 0.780359,-2.999153 1.393756,-6.34604 1.275396,-9.787026 -0.110755,-3.142457 -0.860645,-6.492894 -2.712454,-9.422805 -1.140514,-1.997059 -3.297335,-3.693014 -5.652275,-4.333298 z m 37.60774,12.611873 c -0.489176,-0.109288 -0.981741,-0.186026 -1.474021,-0.229706 -6.959831,-0.381039 -13.377209,2.471835 -18.318611,5.587141 -4.273332,2.793901 -7.817893,5.970684 -10.733191,9.125446 -1.063261,2.429046 -2.114434,4.674021 -2.970047,6.764433 -0.981315,2.148567 -1.769494,3.854638 -2.503564,5.3142 l -1.585699,8.355201 -0.500908,4.356322 c 0.01124,0.454588 0.03833,0.940142 0.09058,1.46538 0.09325,1.594971 0.583734,3.671987 1.966962,5.591395 1.052762,1.451148 2.834912,2.889972 5.009185,3.28448 1.138283,0.289515 2.423782,0.110335 3.519411,-0.44984 1.02987,-0.533872 1.903409,-1.377409 2.503771,-2.415233 1.520022,-2.638126 1.995963,-6.055352 1.228656,-9.600149 -2.254526,-1.573945 -4.667273,-3.205949 -5.855053,-5.748309 0.08566,-0.406197 0.286737,-0.836362 0.652321,-1.207638 0.329527,-0.23157 0.726776,-0.333134 1.129629,-0.304269 0.895021,0.105716 1.584656,0.535704 2.06182,0.959481 0.646092,0.517049 1.193933,1.109242 1.650172,1.73092 0.380051,0.479922 0.751491,1.061585 0.906556,1.75884 0.237973,0.629185 0.434038,1.258617 0.594869,1.885804 6.337311,2.337926 13.748446,2.138378 20.286067,-0.31802 5.0613,-2.161187 9.037298,-6.211282 11.277512,-11.046667 0.02647,-0.05788 0.05305,-0.115646 0.07921,-0.173645 2.128238,-4.723549 2.630659,-10.152037 1.012126,-15.163034 -0.690778,-2.461916 -2.181209,-4.769031 -4.184041,-6.526434 -1.6684,-1.463309 -3.723514,-2.524718 -5.843689,-2.996089 z m -33.279361,17.67769 c -3.024265,3.74771 -5.470638,7.931755 -6.897364,10.487274 -1.131586,2.368241 -2.229108,4.681838 -2.422052,6.828499 0.02867,-0.04306 -0.109837,0.150919 -0.01884,0.05208 1.103036,-1.385733 2.087135,-2.52652 3.439274,-4.425275 1.465328,-2.380354 2.628454,-5.107342 4.636764,-9.799211 0.380934,-1.012966 0.813837,-2.068091 1.262175,-3.143353 z m 5.568107,13.52665 c -0.04194,-0.0073 -0.08301,-0.0083 -0.122418,-0.0052 -0.07188,-0.002 -0.152043,0.01367 -0.179585,0.04587 -0.09429,-0.03158 -0.157663,0.05518 -0.243768,0.178985 0.644329,1.532325 2.197904,2.622557 3.933304,3.752421 -0.06973,-0.201659 -0.138847,-0.40337 -0.216798,-0.604947 -0.0703,-0.410038 -0.37882,-0.844458 -0.71929,-1.332176 -0.401915,-0.530725 -0.866169,-1.026042 -1.396459,-1.439187 -0.402394,-0.277527 -0.760465,-0.549329 -1.055008,-0.595857 z"
       id="path271" /><path
       id="path748"
       d="m 15.395598,33.904748 c 4.148944,-2.919062 10.203274,-2.22425 13.049874,1.405983 5.355641,6.28067 4.299202,15.842556 0.791158,25.277501 -0.261257,0.290169 -0.520457,0.581787 -0.777044,0.875817 2.895371,-8.727811 3.622626,-15.676521 -1.46961,-21.656192 -2.882589,-3.664222 -8.907161,-4.404972 -12.737649,-1.376416 -3.792161,2.94071 -6.0871421,4.93722 -6.8082629,9.066196 0.6076826,-4.934547 2.9137009,-9.72473 7.5563589,-13.299201 0.129689,-0.101668 0.261343,-0.199517 0.395154,-0.29371 z"
       style="fill:#b4b4b4;fill-opacity:1;fill-rule:evenodd;stroke:none;stroke-width:1.76539;stroke-linecap:butt;stroke-linejoin:miter;stroke-miterlimit:4;stroke-dasharray:none;stroke-opacity:1" /><path
       id="path750"
       d="m 31.862855,61.893944 c 7.846522,-8.7143 17.782648,-15.613418 28.674522,-16.566201 6.343606,-0.605041 12.045407,3.173305 14.044001,8.573166 4.071274,9.71153 -0.943534,22.587545 -10.856927,28.468903 7.659555,-5.951314 9.200224,-14.88676 5.425899,-23.508845 -2.041013,-5.228806 -7.535849,-8.986207 -13.513721,-8.551166 -9.719694,0.628977 -16.788202,4.286707 -23.8585,11.81094 0.02837,-0.07547 0.05664,-0.151177 0.08473,-0.226797 z"
       style="fill:#b3b3b3;fill-opacity:1;fill-rule:evenodd;stroke:none;stroke-width:1.76539;stroke-linecap:butt;stroke-linejoin:miter;stroke-miterlimit:4;stroke-dasharray:none;stroke-opacity:1" /><path
       style="fill:#800080;fill-rule:nonzero;stroke:none;stroke-width:0.120356;stroke-linecap:butt;stroke-linejoin:miter;stroke-miterlimit:4;stroke-dasharray:none;stroke-opacity:1"
       id="path752"
       d="m 16.6167,85.861414 c 0.03513,0.03497 1.362875,-0.750287 3.15017,-3.006781 2.192698,-2.768303 3.440919,-5.466773 5.895017,-10.94657 1.199488,-2.988699 2.783161,-6.270141 4.246574,-9.984367 0.855695,-3.09216 1.535827,-6.591528 1.469903,-10.270491 -0.05717,-3.344961 -0.828041,-6.962269 -2.801867,-10.231659 -1.764279,-3.240946 -5.57614,-5.711208 -9.548328,-5.548406 -2.493216,0.05779 -4.752121,1.068052 -6.487883,2.530223 -0.364017,0.304154 -0.710063,0.623362 -1.039562,0.955283 -1.243037,1.252117 -2.2489438,2.683048 -3.0962355,4.162337 -4.0441837,7.435675 -2.5834492,16.569822 1.3719496,23.470216 1.5223389,2.295933 2.9988489,4.709356 5.6402479,6.081037 0.384689,0.162646 1.086424,0.164856 1.760217,-0.337175 0.184079,-0.277048 0.22653,-0.552504 0.14764,-0.787999 -0.08002,-0.255501 -0.195156,-0.44875 -0.312995,-0.581557 -0.296056,-0.36248 -0.64978,-0.639602 -1.008029,-0.845749 -0.275214,-0.199364 -0.659634,-0.368573 -1.131869,-0.399356 -1.238945,-0.655934 -2.626373,-0.782544 -3.834726,-0.550787 -1.3437888,0.230344 -2.5204062,0.788062 -3.482372,1.473541 -1.5128661,1.005266 -2.6729257,2.267655 -3.3917229,3.674065 -0.840272,1.623895 -0.8519295,3.441668 -0.1048903,4.908709 1.0980066,1.893542 3.1815696,2.699067 4.6555852,2.873449 0,0 9e-6,0 9e-6,0 4.123165,0.495749 4.948158,-1.532684 5.157782,-1.246329 -0.06343,-0.08659 -1.702709,1.248978 -5.1078862,0.660823 0,0 -2.7e-6,1.1e-5 -2.7e-6,1.1e-5 -1.3091679,-0.229861 -3.1381723,-1.024896 -3.9262467,-2.598348 -0.5930136,-1.204242 -0.4864893,-2.72967 0.2645134,-4.11691 0.6807212,-1.2419 1.7739856,-2.350783 3.1849121,-3.249509 0.8814218,-0.588039 1.9218281,-1.060106 3.0535791,-1.225819 1.069168,-0.132682 2.266243,0.002 3.248045,0.541439 0.190699,0.0053 0.444037,0.138722 0.752967,0.290228 0.245508,0.157066 0.463727,0.323523 0.600095,0.508983 0.04518,0.0737 0.07633,0.10588 0.06105,0.0958 -0.02907,-0.04628 -0.0033,-0.114455 0.061,-0.243881 0.254034,0.02114 0.03388,-0.118287 -0.317092,-0.04764 C 13.674944,70.863019 12.555283,68.670914 11.05592,66.376091 7.4061658,59.798493 6.0611071,51.136789 9.8763907,44.318006 c 0.8150763,-1.400169 1.7476283,-2.733292 2.8756773,-3.868884 0.299057,-0.301065 0.611774,-0.588152 0.939601,-0.858919 1.552247,-1.270126 3.48655,-2.16612 5.522069,-2.185666 3.167803,-0.198693 6.467506,1.952947 7.975382,4.645658 1.836203,2.962881 2.579797,6.350579 2.689614,9.528403 0.117374,3.479684 -0.490665,6.864556 -1.26445,9.897458 -1.363449,3.654308 -2.867846,6.959045 -3.989404,10.000604 -2.38894,5.69184 -3.30047,8.065301 -5.349916,11.046651 -1.579232,2.297314 -2.729888,3.266857 -2.658199,3.338145 z" /><path
       style="fill:none;fill-rule:nonzero;stroke:none;stroke-width:0.119685;stroke-linecap:butt;stroke-linejoin:miter;stroke-miterlimit:4;stroke-dasharray:none;stroke-opacity:1"
       d="m 18.011497,84.786839 c -0.04929,0.03126 -0.132579,0.04638 -0.146539,-0.0083"
       id="path754" /><path
       style="fill:#800080;fill-rule:nonzero;stroke:none;stroke-width:0.119685;stroke-linecap:butt;stroke-linejoin:miter;stroke-miterlimit:4;stroke-dasharray:none;stroke-opacity:1"
       id="path756"
       d="m 22.411477,85.645873 c 0.148356,0.04753 -1.204366,1.746967 -0.999029,5.86471 0.0144,1.668365 0.44013,3.870365 1.857119,5.981161 1.089144,1.631723 2.995081,3.262336 5.485777,3.798886 1.40295,0.37003 2.936653,0.20209 4.236415,-0.45829 1.20609,-0.60545 2.229379,-1.552276 2.93229,-2.734597 2.084266,-3.497664 2.503237,-8.249789 0.731933,-12.972656 -0.153755,-0.697246 -0.522142,-1.278681 -0.899,-1.758582 -0.452393,-0.621678 -0.995392,-1.214067 -1.636043,-1.731116 -0.473135,-0.423807 -1.157194,-0.853403 -2.044674,-0.959098 -0.399439,-0.02889 -0.79295,0.07278 -1.119703,0.304311 -0.362497,0.371265 -0.56244,0.801378 -0.64731,1.207576 1.22351,2.641088 3.75954,4.300394 6.066952,5.932077 6.81633,2.628902 14.743409,2.537857 21.727839,-0.04545 5.400315,-2.323101 9.611657,-6.605626 11.969822,-11.743117 0.02826,-0.06108 0.05612,-0.12225 0.08377,-0.183552 2.251687,-4.991905 2.756334,-10.748506 1.033389,-16.13319 -0.775388,-2.751619 -2.428229,-5.301579 -4.662297,-7.257846 -2.32371,-2.035707 -5.297556,-3.354527 -8.31206,-3.621474 -7.428707,-0.310358 -14.032949,2.685804 -19.006385,5.967061 -10.985536,7.466328 -16.935604,17.337049 -19.715436,22.889258 -1.190354,3.019611 -1.689011,3.838632 -2.082473,5.75539 -0.278272,1.355813 -0.172576,2.072803 -0.134899,2.076861 0.0596,0.0062 0.09525,-0.694181 0.477419,-1.977864 0.619799,-2.081829 0.968814,-2.32985 2.380045,-5.562406 2.979528,-5.382189 9.106812,-15.008689 19.921543,-22.139418 4.899779,-3.115295 11.263308,-5.968241 18.16452,-5.587213 2.603434,0.232708 5.21977,1.424931 7.255896,3.22594 1.985963,1.757413 3.463941,4.064674 4.148901,6.52661 1.60492,5.011006 1.106459,10.439464 -1.003833,15.163034 -0.02625,0.05798 -0.05209,0.115915 -0.07854,0.173727 -2.221336,4.835385 -6.163284,8.885471 -11.181953,11.046658 -6.553357,2.483202 -13.992668,2.661764 -20.32147,0.242233 -2.265406,-1.527903 -4.557994,-2.760719 -5.376664,-4.724212 0.08536,-0.123856 0.14854,-0.210564 0.241969,-0.178842 0.0273,-0.0322 0.106785,-0.04917 0.178034,-0.04658 0.312731,-0.02567 0.71152,0.284568 1.167539,0.601706 0.525825,0.413124 0.985993,0.908234 1.384523,1.43898 0.3376,0.487708 0.643361,0.922097 0.713069,1.332156 1.698243,4.429271 1.419288,8.903567 -0.451454,12.177998 -0.595311,1.037842 -1.461765,1.881239 -2.482964,2.415074 -1.086403,0.560193 -2.360774,0.739523 -3.489462,0.449953 -2.155958,-0.39452 -3.923457,-1.833706 -4.967355,-3.284863 -1.371577,-1.919401 -1.857658,-3.996024 -1.950126,-5.591005 -0.383826,-3.890128 0.502304,-5.84859 0.404329,-5.880084 z" /><path
       style="fill:#ffaaaa;fill-opacity:1;fill-rule:evenodd;stroke:none;stroke-width:0.128714px;stroke-linecap:butt;stroke-linejoin:miter;stroke-opacity:1"
       d="m 33.44259,56.153206 c -0.0087,-0.0062 -0.01422,-0.01553 -0.01774,-0.02775 0,0 0,0 0,0 -0.0015,-0.01563 6.46e-4,-0.03644 0.0062,-0.06181 v 0 0 0 c 0.01051,-0.05136 0.03528,-0.121537 0.07324,-0.210636 0,0 4e-6,-10e-6 4e-6,-10e-6 v 0 c 0.07421,-0.176429 0.199194,-0.424254 0.373498,-0.738452 v 0 c 0.337995,-0.609306 0.857174,-1.460576 1.54744,-2.504788 v 0 c 1.227094,-1.856545 3.08876,-4.473883 5.41036,-7.206795 v 0 c 0,0 0,0 0,0 1.531374,-1.806911 3.377863,-3.864265 5.572459,-5.612299 0.401577,-0.319871 0.810616,-0.626295 1.228495,-0.918627 1.009695,-0.713667 2.096555,-1.340418 3.355471,-1.680831 0.508277,-0.137976 1.057735,-0.210449 1.630837,-0.174451 0,0 0,0 0,0 0.565248,0.05694 1.125426,0.230524 1.630093,0.513063 1.366722,1.375546 2.0797,3.090717 1.902514,4.652496 -0.221243,1.441826 -1.108692,2.530527 -2.050194,3.199063 -0.50152,0.360902 -1.036295,0.617702 -1.579891,0.769895 -0.518987,0.152222 -1.050475,0.184939 -1.549338,0.07195 -0.54605,-0.129839 -0.936424,-0.47461 -1.132486,-0.825407 0,0 0,0 0,0 -0.589594,-1.140901 0.103109,-1.588956 -0.02696,-1.610129 0.09,0.0147 -0.08548,0.699648 0.465567,1.398841 0,0 0,0 0,0 0.154599,0.211153 0.444156,0.398204 0.78283,0.441936 0.35051,0.05353 0.726765,-0.02061 1.152136,-0.16915 0.436443,-0.159854 0.860819,-0.409748 1.271035,-0.746569 0.753827,-0.628677 1.449397,-1.589246 1.553492,-2.727549 0.165651,-1.15761 -0.451016,-2.472849 -1.535692,-3.578259 -0.252962,-0.130709 -0.559626,-0.195085 -0.870976,-0.192993 0,0 -1e-5,-1.1e-5 -1e-5,-1.1e-5 -0.377452,-0.02391 -0.774685,0.04245 -1.181743,0.15215 -1.034535,0.280375 -1.974911,0.853497 -2.943424,1.525875 -0.396027,0.277962 -0.785093,0.569974 -1.168861,0.875476 -2.087464,1.661738 -3.929504,3.663487 -5.496759,5.40862 0,0 0,0 0,0 v 0 c -2.328947,2.598993 -4.382911,5.185386 -5.736402,6.881724 v 0 c -0.776281,0.973004 -1.404855,1.76229 -1.851662,2.293823 v 0 c -0.231625,0.27556 -0.41804,0.48634 -0.554231,0.622858 v 0 c 0,0 0,0 0,0 -0.06915,0.06947 -0.125838,0.119982 -0.16939,0.150898 v 0 0 0 c -0.02187,0.01553 -0.04065,0.02619 -0.05594,0.03158 0,0 0,0 0,0 -0.01381,0.0021 -0.02537,0.0021 -0.03386,-0.0031 z"
       id="path758" /><path
       id="path760"
       d="m 31.777996,59.121326 c -0.01113,-0.0031 -0.01903,-0.0093 -0.02629,-0.0205 -0.0053,-0.01336 -0.0082,-0.03002 -0.0085,-0.05197 0,0 0,0 0,0 -0.0012,-0.04359 0.0076,-0.105023 0.02474,-0.183603 v 0 c 0.03388,-0.15506 0.102374,-0.379052 0.200059,-0.664003 v 0 c 0.188478,-0.550572 0.49626,-1.357261 0.871944,-2.347399 v 0 c 0.681624,-1.79634 1.695331,-4.45858 2.584634,-7.427658 v 0 c 0,0 1.3e-5,-10e-6 1.3e-5,-10e-6 0.669366,-2.239509 1.363216,-4.849683 1.609612,-7.533644 0.03011,-0.326571 0.05323,-0.651693 0.06936,-0.975633 0.06252,-1.279199 0.01853,-2.493691 -0.263099,-3.682941 -0.230957,-1.001671 -0.5811,-1.920278 -1.283854,-2.700184 -0.707801,-0.503103 -1.352917,-0.935795 -2.084629,-1.121096 -0.41541,-0.114703 -0.872206,-0.134363 -1.145661,-0.01243 -0.38638,0.128711 -0.644342,0.447621 -0.857267,0.771469 -0.271225,0.444493 -0.395771,0.94389 -0.462399,1.414877 -0.16386,1.276983 0.03293,2.274875 0.473046,3.11573 0.246875,0.437309 0.440318,0.713553 0.785907,0.90253 0,0 2.2e-5,0 2.2e-5,0 0.161959,0.09338 0.336371,0.145628 0.488289,0.164646 0.419768,0.05932 0.685279,-0.03862 0.721995,-2.38e-4 -0.0029,-0.0041 -0.08586,0.224571 -0.690337,0.248891 -0.218659,0.0052 -0.494382,-0.03209 -0.769615,-0.148538 0,0 0,0 0,0 -0.496726,-0.216153 -0.896458,-0.571444 -1.199645,-1.038207 -0.611539,-0.889556 -0.985839,-2.017671 -0.911356,-3.39098 0.02231,-0.519493 0.122046,-1.092252 0.405421,-1.648684 0.195852,-0.414076 0.559056,-0.860432 1.228267,-1.163916 0.664199,-0.261791 1.50738,-0.280913 2.29097,-0.06854 1.127818,0.321923 2.046753,0.870259 2.836394,1.453288 0.911119,0.985934 1.411048,2.078206 1.700176,3.192127 0.326557,1.284541 0.394864,2.574466 0.331469,3.894694 -0.01588,0.334501 -0.03926,0.66983 -0.07029,1.006123 -0.255994,2.773144 -1.008219,5.405556 -1.775531,7.651277 0,0 0,0 0,0 v 0 c -1.025252,3.006431 -2.214035,5.575534 -3.134915,7.346893 v 0 c -0.503369,0.968334 -0.940722,1.722916 -1.276879,2.240068 v 0 c -0.172038,0.264669 -0.315995,0.464485 -0.428243,0.596799 v 0 c -0.05663,0.06678 -0.104838,0.115832 -0.144257,0.146933 0,0 0,0 0,0 -0.01978,0.01563 -0.0373,0.02661 -0.05247,0.03302 -0.01433,0.0052 -0.02673,0.0031 -0.03733,9.31e-4 z"
       style="fill:#ffaaaa;fill-opacity:1;fill-rule:evenodd;stroke:none;stroke-width:0.127653px;stroke-linecap:butt;stroke-linejoin:miter;stroke-opacity:1" /><ellipse
       style="fill:#ffffff;fill-opacity:1;stroke:none;stroke-width:0.297483;stroke-linecap:round;stroke-miterlimit:4;stroke-dasharray:none;stroke-opacity:1"
       id="path239"
       cx="-0.61865664"
       cy="51.460117"
       transform="matrix(-0.96191281,0.27335646,0.37741346,0.92604486,0,0)"
       rx="4.2326603"
       ry="4.1663165" /><ellipse
       style="fill:#ffffff;fill-opacity:1;stroke:none;stroke-width:0.19198;stroke-linecap:round;stroke-miterlimit:4;stroke-dasharray:none;stroke-opacity:1"
       id="path239-7"
       cx="8.0397739"
       cy="96.27858"
       transform="matrix(-0.96191281,0.27335646,0.37741346,0.92604486,0,0)"
       rx="2.7315283"
       ry="2.6887138" /><ellipse
       style="fill:#ffffff;fill-opacity:1;stroke:none;stroke-width:0.19198;stroke-linecap:round;stroke-miterlimit:4;stroke-dasharray:none;stroke-opacity:1"
       id="path239-7-5"
       cx="18.361319"
       cy="76.569733"
       transform="matrix(-0.96191281,0.27335646,0.37741346,0.92604486,0,0)"
       rx="2.7315283"
       ry="2.6887138" /><ellipse
       style="fill:#ffffff;fill-opacity:1;stroke:none;stroke-width:0.395018;stroke-linecap:round;stroke-miterlimit:4;stroke-dasharray:none;stroke-opacity:1"
       id="path241"
       cx="-26.703953"
       cy="75.958435"
       transform="matrix(-0.96191281,0.27335646,0.37741346,0.92604486,0,0)"
       rx="6.3489909"
       ry="6.249474" /><text
       xml:space="preserve"
       transform="matrix(0.09660691,-0.08146715,0.08387039,0.09945677,4.939714,93.118419)"
       id="text828"
       style="font-style:normal;font-variant:normal;font-weight:normal;font-stretch:normal;font-size:96px;font-family:Caramel;-inkscape-font-specification:'Caramel, Normal';font-variant-ligatures:normal;font-variant-caps:normal;font-variant-numeric:normal;font-variant-east-asian:normal;text-align:center;white-space:pre;shape-inside:url(#rect830);display:inline;fill:#ff5555;stroke:#ffffff;stroke-width:0"><tspan
         x="270.18262"
         y="180.54492"
         id="tspan1">ccms</tspan></text></g></svg>
